<?xml version="1.0" encoding="UTF-8"?>
<svg version="1.1" xmlns="http://www.w3.org/2000/svg" width="475" height="243">
<path d="M0 0 C3.87970615 2.58647077 5.17864668 5.41094004 6.625 9.75 C7.00448568 16.31802146 5.89470528 22.12558906 4.375 28.5 C4.14828613 29.47211426 3.92157227 30.44422852 3.68798828 31.44580078 C1.53736093 40.47541723 -1.35601176 49.08086337 -4.6484375 57.74609375 C-6.70240338 63.41106417 -8.60182605 68.66890173 -8.375 74.75 C-2.06911337 70.1836683 4.05349048 65.74262612 9.3203125 59.96484375 C10.625 58.75 10.625 58.75 12.625 58.75 C12.955 57.76 13.285 56.77 13.625 55.75 C14.285 55.75 14.945 55.75 15.625 55.75 C15.625 55.09 15.625 54.43 15.625 53.75 C16.285 53.75 16.945 53.75 17.625 53.75 C17.625 53.09 17.625 52.43 17.625 51.75 C18.75424708 50.58653331 19.8913332 49.42985287 21.0625 48.30859375 C22.86626977 46.5093334 24.52188699 44.61515988 26.1875 42.6875 C26.78433594 42.006875 27.38117188 41.32625 27.99609375 40.625 C29.26672446 39.1624035 30.51325972 37.67886328 31.75 36.1875 C33.625 34.75 33.625 34.75 35.9375 34.8125 C39.25350516 35.96924599 42.42286457 37.30589971 45.625 38.75 C45.625 39.41 45.625 40.07 45.625 40.75 C46.285 40.75 46.945 40.75 47.625 40.75 C48.94652306 46.63678452 48.4991103 49.61766018 45.625 54.75 C44.14 55.245 44.14 55.245 42.625 55.75 C42.625 56.41 42.625 57.07 42.625 57.75 C41.965 57.75 41.305 57.75 40.625 57.75 C40.25375 58.678125 40.25375 58.678125 39.875 59.625 C38.41871361 62.10068687 37.24687494 62.70125002 34.625 63.75 C34.625 64.41 34.625 65.07 34.625 65.75 C33.965 65.75 33.305 65.75 32.625 65.75 C32.625 66.41 32.625 67.07 32.625 67.75 C27.14880952 72.75 27.14880952 72.75 24.625 72.75 C24.625 73.41 24.625 74.07 24.625 74.75 C18.52528578 80.39548018 11.48231949 85.08118673 4.625 89.75 C5.11273083 97.3518737 6.57972488 104.42186179 8.625 111.75 C8.90214844 112.76964844 9.17929687 113.78929687 9.46484375 114.83984375 C11.49657228 121.89421449 14.12850935 128.52475852 17.16308594 135.19433594 C18.8891842 138.9909824 20.38189169 142.768361 21.625 146.75 C22.285 146.75 22.945 146.75 23.625 146.75 C27.625 152.16176471 27.625 152.16176471 27.625 154.75 C28.285 154.75 28.945 154.75 29.625 154.75 C31.25 156.125 31.25 156.125 32.625 157.75 C32.625 158.41 32.625 159.07 32.625 159.75 C33.285 159.75 33.945 159.75 34.625 159.75 C34.625 160.41 34.625 161.07 34.625 161.75 C35.285 161.9975 35.945 162.245 36.625 162.5 C39.64423353 163.75801397 42.48625696 165.20707486 45.3671875 166.75 C58.03510446 172.36070371 72.43262595 170.81995029 85.12890625 166.171875 C92.21273153 163.29085556 97.9820399 159.74170189 103.80078125 154.7890625 C105.625 153.75 105.625 153.75 107.85546875 154.0859375 C108.43941406 154.30507812 109.02335937 154.52421875 109.625 154.75 C110.09246683 161.81394319 110.33094968 168.0790328 105.625 173.75 C97.46278626 180.75 97.46278626 180.75 92.625 180.75 C92.625 181.41 92.625 182.07 92.625 182.75 C72.5793868 189.97798553 48.82443656 190.04912164 29.296875 181.1484375 C25.21367674 179.01132496 21.12949422 176.76775891 17.625 173.75 C17.625 173.09 17.625 172.43 17.625 171.75 C17.04105469 171.48703125 16.45710937 171.2240625 15.85546875 170.953125 C2.72674829 163.8714334 -5.84651757 145.23230198 -9.9375 131.6796875 C-12.25986458 123.74731114 -14.40342413 115.77646292 -16.375 107.75 C-16.705 107.75 -17.035 107.75 -17.375 107.75 C-18.19434031 111.38146883 -18.54281436 114.82042488 -18.65625 118.5390625 C-18.69363281 119.64636719 -18.73101562 120.75367188 -18.76953125 121.89453125 C-18.80433594 123.04308594 -18.83914063 124.19164062 -18.875 125.375 C-19.07636874 131.88592263 -19.29145882 138.39536626 -19.7421875 144.89453125 C-19.80003418 145.75925049 -19.85788086 146.62396973 -19.91748047 147.51489258 C-20.44266023 150.08053865 -21.07728659 151.06472251 -23 152.8125 C-29.4890645 156.53770369 -35.97163784 157.71512477 -43.375 156.75 C-47.52356188 154.86429005 -49.45024591 153.08884225 -51.25 149 C-51.62125 147.9275 -51.9925 146.855 -52.375 145.75 C-52.849375 146.471875 -53.32375 147.19375 -53.8125 147.9375 C-57.71626087 152.22211559 -63.47884049 156.02591024 -69.375 156.75 C-71.62890625 156.04296875 -71.62890625 156.04296875 -73.9375 154.9375 C-74.70191406 154.58042969 -75.46632813 154.22335938 -76.25390625 153.85546875 C-78.375 152.75 -78.375 152.75 -81.375 150.75 C-81.375 150.09 -81.375 149.43 -81.375 148.75 C-82.035 148.75 -82.695 148.75 -83.375 148.75 C-84.365 146.275 -84.365 146.275 -85.375 143.75 C-87.97486627 145.23563787 -90.31810433 146.7011178 -92.59375 148.65625 C-95.7664642 151.04469777 -99.02565614 152.54859172 -102.6875 154 C-103.62625977 154.4021875 -103.62625977 154.4021875 -104.58398438 154.8125 C-111.56377729 157.61873469 -118.05230912 157.43134497 -125.1328125 154.87109375 C-130.36675782 152.25412109 -134.29544357 147.85458438 -138.375 143.75 C-139.24898437 144.31267578 -139.24898437 144.31267578 -140.140625 144.88671875 C-153.04394216 152.94114785 -165.98807676 158.27550891 -181.375 156.75 C-187.19301244 155.16948267 -191.56208104 152.48726295 -195.375 147.75 C-203.68433624 131.33758763 -193.9952476 105.68745584 -189.85546875 89.10546875 C-189.241757 86.49744637 -189.241757 86.49744637 -189.375 82.75 C-190.91607422 83.38228516 -190.91607422 83.38228516 -192.48828125 84.02734375 C-210.99187162 91.42475105 -210.99187162 91.42475105 -219.1875 88.875 C-223.79943887 84.39483081 -227.33132514 78.8519676 -229.375 72.75 C-229.375 71.43 -229.375 70.11 -229.375 68.75 C-224.72164523 66.99842355 -220.06664213 65.25136836 -215.40917969 63.51074219 C-213.71222849 62.87611666 -212.0161599 62.23913173 -210.3203125 61.6015625 C-204.4790982 59.43493999 -198.58719208 57.54598571 -192.61328125 55.77734375 C-191.54464844 55.43832031 -190.47601563 55.09929687 -189.375 54.75 C-188.69445557 54.63333984 -188.01391113 54.51667969 -187.31274414 54.39648438 C-184.87635993 53.83207535 -183.35787977 53.29168971 -181.375 51.75 C-179.57447111 47.77325835 -178.92362103 43.65880306 -178.1875 39.375 C-177.70943254 37.00392784 -177.22512203 34.63410532 -176.734375 32.265625 C-176.50556641 31.13318359 -176.27675781 30.00074219 -176.04101562 28.83398438 C-174.07655169 19.73753699 -170.96985547 10.62316977 -163.375 4.75 C-156.19795223 0.65323025 -148.66819908 -1.46783262 -140.375 -1.25 C-139.88 -0.755 -139.88 -0.755 -139.375 -0.25 C-139.42461793 6.36158878 -140.7132732 12.64692647 -142.41015625 19.00390625 C-143.73442814 24.14551248 -144.89462472 29.32096046 -146.0625 34.5 C-146.28905273 35.50200439 -146.51560547 36.50400879 -146.74902344 37.53637695 C-147.29213572 39.94066766 -147.83414485 42.34520071 -148.375 44.75 C-141.30097263 43.48408438 -141.30097263 43.48408438 -134.24609375 42.1171875 C-119.15997409 39.06606218 -119.15997409 39.06606218 -113.6875 42.375 C-111.85449817 45.69186045 -112.37580464 47.10336396 -113.375 50.75 C-114.93395367 53.49973583 -116.77789909 55.98515689 -118.6875 58.5 C-119.41743164 59.50740234 -119.41743164 59.50740234 -120.16210938 60.53515625 C-123.78422471 65.40039327 -126.5988623 67.5454118 -132.640625 68.75 C-133.44886719 68.915 -134.25710937 69.08 -135.08984375 69.25 C-135.92644531 69.415 -136.76304687 69.58 -137.625 69.75 C-143.58427359 70.94746785 -149.48855059 72.23091628 -155.375 73.75 C-156.51897589 78.02605253 -157.65982012 82.30292503 -158.79760742 86.58062744 C-159.17149052 87.98537661 -159.54596405 89.38996882 -159.92114258 90.79437256 C-160.99668258 94.82322146 -162.05503272 98.85603489 -163.09472656 102.89428711 C-163.45000287 104.26321317 -163.81073884 105.63073323 -164.17675781 106.99682617 C-166.44096062 115.46345664 -168.59858452 123.91553718 -167.375 132.75 C-166.715 133.74 -166.055 134.73 -165.375 135.75 C-157.98540022 135.39243872 -152.73104776 133.49895663 -146.375 129.75 C-145.31796875 129.20988281 -144.2609375 128.66976562 -143.171875 128.11328125 C-139.28312808 124.82739873 -139.27587477 122.13516396 -138.8125 117.25 C-136.47996996 99.55219417 -127.98177383 85.32564379 -114.375 73.75 C-105.29266541 67.24396162 -95.57814688 62.75844174 -84.25 64.1328125 C-81.94698652 64.89088777 -80.87606206 65.86429079 -79.375 67.75 C-79.375 68.41 -79.375 69.07 -79.375 69.75 C-78.05435547 69.77126953 -78.05435547 69.77126953 -76.70703125 69.79296875 C-67.38979915 70.17558538 -67.38979915 70.17558538 -63.0625 72.625 C-58.21994358 81.59269707 -62.46258445 93.3202104 -64.40234375 102.76171875 C-65.79090793 109.67363881 -66.51453576 116.3658538 -66.5 123.4375 C-66.50257813 124.69949219 -66.50515625 125.96148437 -66.5078125 127.26171875 C-66.39460439 130.23509634 -66.06962348 132.86676128 -65.375 135.75 C-62.735 135.09 -60.095 134.43 -57.375 133.75 C-57.375 133.09 -57.375 132.43 -57.375 131.75 C-56.715 131.75 -56.055 131.75 -55.375 131.75 C-55.00375 130.9765625 -55.00375 130.9765625 -54.625 130.1875 C-53.375 127.75 -53.375 127.75 -51.41308594 124.55786133 C-49.34480415 120.94001174 -48.37452217 117.48119823 -47.515625 113.38671875 C-47.36540894 112.68966827 -47.21519287 111.9926178 -47.0604248 111.27444458 C-46.73889162 109.77679751 -46.42262518 108.27801156 -46.11120605 106.77822876 C-45.44635578 103.57745793 -44.75555596 100.38246317 -44.06573486 97.18699646 C-43.70770292 95.52837475 -43.3509028 93.86948668 -42.99530029 92.21034241 C-41.15193026 83.63409417 -39.15170803 75.09697382 -37.125 66.5625 C-36.80495672 65.21119497 -36.48496828 63.85987696 -36.16503906 62.50854492 C-35.55035953 59.91350971 -34.93371714 57.31896446 -34.31616211 54.72460938 C-33.65000314 51.92046838 -32.99347343 49.11423863 -32.34204102 46.30664062 C-30.65149606 39.03224478 -28.91873393 31.79235138 -26.8125 24.625 C-24.55331741 16.73570804 -22.8397758 8.82413003 -21.375 0.75 C-13.66736143 -2.4751821 -7.8732576 -2.91602133 0 0 Z M-100.51953125 92.53125 C-102.34503306 94.71416585 -102.98999074 95.97288403 -103.375 98.75 C-104.035 98.75 -104.695 98.75 -105.375 98.75 C-113.96704488 114.01645029 -113.96704488 114.01645029 -116.07421875 130.9765625 C-115.44451305 133.16294077 -115.44451305 133.16294077 -113.375 135.75 C-109.33797604 137.14743137 -106.98187104 136.91255474 -102.875 135.8125 C-96.05268144 132.35545068 -92.37917705 126.50566489 -89.625 119.5625 C-85.66095642 107.44796416 -84.13080209 94.46114359 -84.375 81.75 C-91.12304141 81.75 -95.99815181 88.10832605 -100.51953125 92.53125 Z " fill="#F1F1F1" transform="translate(357.375,38.25)"/>
<path d="M0 0 C7.52513608 7.41002883 10.03598933 16.24681876 10.29296875 26.51171875 C10.20108884 31.55097822 9.35862021 36.1620546 8.04296875 41.01171875 C7.70800501 42.34464342 7.3741953 43.67786049 7.04296875 45.01171875 C6.38296875 45.01171875 5.72296875 45.01171875 5.04296875 45.01171875 C4.89859375 45.63046875 4.75421875 46.24921875 4.60546875 46.88671875 C4.04296875 49.01171875 4.04296875 49.01171875 3.04296875 51.01171875 C2.38296875 51.01171875 1.72296875 51.01171875 1.04296875 51.01171875 C0.71296875 52.00171875 0.38296875 52.99171875 0.04296875 54.01171875 C-8.03659759 59.82730853 -16.19754464 61.38396172 -25.95703125 60.01171875 C-29.40658788 59.08910331 -31.01506717 58.20377042 -33.95703125 56.01171875 C-35.39453125 53.13671875 -35.39453125 53.13671875 -34.95703125 50.01171875 C-32.91107023 47.59176486 -30.64261236 45.69095129 -27.95703125 44.01171875 C-27.29703125 44.01171875 -26.63703125 44.01171875 -25.95703125 44.01171875 C-25.29703125 42.36171875 -24.63703125 40.71171875 -23.95703125 39.01171875 C-23.29703125 39.01171875 -22.63703125 39.01171875 -21.95703125 39.01171875 C-21.49296875 37.31015625 -21.49296875 37.31015625 -21.01953125 35.57421875 C-19.95703125 32.01171875 -19.95703125 32.01171875 -18.95703125 31.01171875 C-18.34449734 25.00888648 -19.54922836 20.86641002 -22.95703125 16.01171875 C-30.10404452 8.25644903 -36.9157584 6.69071086 -47.25 6.1171875 C-61.89894837 5.70041025 -75.81102938 8.50951744 -87.95703125 17.01171875 C-88.61703125 17.01171875 -89.27703125 17.01171875 -89.95703125 17.01171875 C-89.95703125 17.67171875 -89.95703125 18.33171875 -89.95703125 19.01171875 C-90.61703125 19.01171875 -91.27703125 19.01171875 -91.95703125 19.01171875 C-92.24578125 19.58921875 -92.53453125 20.16671875 -92.83203125 20.76171875 C-93.87369792 22.84505208 -94.91536458 24.92838542 -95.95703125 27.01171875 C-96.61703125 27.01171875 -97.27703125 27.01171875 -97.95703125 27.01171875 C-98.13878906 27.86443359 -98.13878906 27.86443359 -98.32421875 28.734375 C-99.1071912 32.34207115 -99.89303527 35.82328614 -101.08203125 39.32421875 C-103.09081585 47.78981101 -102.82415136 55.15044372 -98.53515625 62.81640625 C-96.47450235 65.68295945 -94.14964998 67.77448881 -91.3125 69.85546875 C-90.64154297 70.4278125 -90.64154297 70.4278125 -89.95703125 71.01171875 C-89.95703125 71.67171875 -89.95703125 72.33171875 -89.95703125 73.01171875 C-89.26222656 73.26695313 -88.56742188 73.5221875 -87.8515625 73.78515625 C-84.60162558 75.1623225 -81.68487239 76.84323902 -78.64453125 78.63671875 C-73.56197001 81.59383301 -68.41928475 84.35089496 -63.14453125 86.94921875 C-55.28866511 90.81966987 -47.54521574 94.87935853 -39.82714844 99.01708984 C-38.20380636 99.88047047 -36.56959829 100.72336072 -34.93359375 101.5625 C-20.97149551 108.83016111 -5.1293176 118.91166108 1.04296875 134.01171875 C4.84539605 148.56750731 1.03959645 165.01798159 -5.95703125 178.01171875 C-6.61703125 178.01171875 -7.27703125 178.01171875 -7.95703125 178.01171875 C-8.23546875 179.00171875 -8.23546875 179.00171875 -8.51953125 180.01171875 C-10.56511899 184.28077143 -13.52887768 187.75335581 -16.95703125 191.01171875 C-17.61703125 191.01171875 -18.27703125 191.01171875 -18.95703125 191.01171875 C-18.95703125 191.67171875 -18.95703125 192.33171875 -18.95703125 193.01171875 C-24.36879596 197.01171875 -24.36879596 197.01171875 -26.95703125 197.01171875 C-26.95703125 197.67171875 -26.95703125 198.33171875 -26.95703125 199.01171875 C-44.59630695 209.35324837 -62.36160259 214.71818595 -82.64453125 216.38671875 C-83.76053711 216.4837207 -84.87654297 216.58072266 -86.02636719 216.68066406 C-100.1271766 217.65613954 -112.8951672 215.58878309 -124.16796875 206.71875 C-131.10894434 200.09602875 -133.6690368 191.45232179 -134.0859375 182.12890625 C-134.38635087 165.50603319 -131.4169933 150.43084197 -119.9921875 137.84765625 C-111.67822346 129.81934378 -102.93359136 126.60783665 -91.51953125 126.38671875 C-90.7500415 126.36351562 -89.98055176 126.3403125 -89.18774414 126.31640625 C-85.01053482 126.37502732 -83.40448767 126.65123442 -80.04296875 129.359375 C-77.82005191 132.18589285 -76.182766 134.62292267 -74.95703125 138.01171875 C-75.59765625 140.078125 -75.59765625 140.078125 -76.95703125 142.01171875 C-79.09375 143.06640625 -79.09375 143.06640625 -81.64453125 143.88671875 C-86.15560741 145.5188013 -89.15646543 147.51309233 -92.58203125 150.83984375 C-93.95703125 152.01171875 -93.95703125 152.01171875 -95.95703125 152.01171875 C-96.23546875 152.5840625 -96.51390625 153.15640625 -96.80078125 153.74609375 C-97.93855617 155.97551758 -99.18554751 158.10639875 -100.45703125 160.26171875 C-104.45907517 167.49845304 -105.9404432 174.73110508 -104.95703125 183.01171875 C-103.60610245 185.93718315 -103.60610245 185.93718315 -101.95703125 188.01171875 C-101.95703125 188.67171875 -101.95703125 189.33171875 -101.95703125 190.01171875 C-100.87421875 190.44484375 -100.87421875 190.44484375 -99.76953125 190.88671875 C-98.03616393 191.58006568 -96.3120418 192.2977855 -94.60546875 193.0546875 C-82.43239941 197.45351049 -66.63125902 191.41683929 -55.45703125 186.26171875 C-49.4575643 183.04861511 -42.08027567 178.25820759 -38.95703125 172.01171875 C-38.29703125 172.01171875 -37.63703125 172.01171875 -36.95703125 172.01171875 C-36.83328125 171.43035156 -36.70953125 170.84898437 -36.58203125 170.25 C-35.9517966 167.99297217 -35.08944801 166.24339754 -33.95703125 164.19921875 C-29.95921116 156.27600284 -30.84876074 147.68538961 -30.95703125 139.01171875 C-31.61703125 139.01171875 -32.27703125 139.01171875 -32.95703125 139.01171875 C-33.35921875 138.11839844 -33.35921875 138.11839844 -33.76953125 137.20703125 C-42.39841921 121.25494232 -73.11772243 111.21422927 -88.95703125 105.01171875 C-88.95703125 104.35171875 -88.95703125 103.69171875 -88.95703125 103.01171875 C-89.64796875 102.91632813 -90.33890625 102.8209375 -91.05078125 102.72265625 C-104.71242693 99.38069454 -120.03619356 86.3086512 -127.95703125 75.01171875 C-135.58127468 62.03852966 -135.85416545 46.41087877 -132.76953125 31.82421875 C-128.75093754 17.52976898 -119.76155073 4.87050108 -106.75390625 -2.5703125 C-76.15641473 -18.08272789 -28.27015614 -23.06644599 0 0 Z " fill="#F2F2F2" transform="translate(140.95703125,18.98828125)"/>
<path d="M0 0 C3.56714863 2.9677507 5.24875441 5.71423474 6.5 10.25 C7.26804769 19.77379132 5.10097379 28.44301607 -0.5 36.25 C-8.73036728 45.5879341 -20.28285182 50.28928061 -32.5 51.25 C-36.17492126 51.37563833 -39.82550081 51.38019879 -43.5 51.25 C-43.38098517 56.21616441 -43.26604648 59.33074422 -40 63.25 C-39.175 63.91 -38.35 64.57 -37.5 65.25 C-37.17 65.58 -36.84 65.91 -36.5 66.25 C-24.9309221 67.30016927 -18.00666358 65.27823237 -9.1875 57.9375 C-8.38699219 57.21949219 -7.58648437 56.50148437 -6.76171875 55.76171875 C-4.5 54.25 -4.5 54.25 -2.28515625 54.390625 C0.08703291 55.5325979 0.56949293 56.84619007 1.5 59.25 C2.16 59.25 2.82 59.25 3.5 59.25 C4.4229133 62.95004333 5.22393154 66.50383348 3.72265625 70.125 C-3.44488884 79.53648778 -17.3022312 85.0377986 -28.6171875 86.7109375 C-39.492698 87.86246214 -49.53005605 86.94865539 -58.5 80.25 C-66.48854502 73.33044654 -70.77448984 64.77317103 -71.94140625 54.28125 C-72.58273168 40.85199191 -68.34252738 29.14454542 -60.5 18.25 C-59.84 18.25 -59.18 18.25 -58.5 18.25 C-58.11328125 17.37601563 -58.11328125 17.37601563 -57.71875 16.484375 C-56.40165983 14.0697097 -54.94911616 12.43259823 -53 10.5 C-52.08734375 9.57960938 -52.08734375 9.57960938 -51.15625 8.640625 C-49.5 7.25 -49.5 7.25 -47.5 7.25 C-47.5 6.59 -47.5 5.93 -47.5 5.25 C-32.57812322 -3.92096368 -16.27138997 -11.20718204 0 0 Z M-25.5 13.25 C-25.5 13.91 -25.5 14.57 -25.5 15.25 C-26.49 15.58 -27.48 15.91 -28.5 16.25 C-34.19520314 22.68746895 -40.5 32.43013478 -40.5 41.25 C-34.71686974 41.84314157 -30.44286785 40.04299596 -25.5 37.25 C-19.54899545 32.40615908 -14.11295044 24.83086706 -12.5 17.25 C-12.36272722 14.55847306 -12.4069336 11.94892556 -12.5 9.25 C-17.72456673 7.12751977 -21.50225209 9.88713017 -25.5 13.25 Z " fill="#EFEFEF" transform="translate(459.5,106.75)"/>
<path d="M0 0 C0 3.92791315 -0.92939028 5.63525921 -3 9 C-4.94356659 10.90712472 -6.96128512 12.65560422 -9.0625 14.38671875 C-10.81427146 15.84535104 -12.41681592 17.36239396 -14 19 C-14.99 18.34 -15.98 17.68 -17 17 C-16.360625 16.731875 -15.72125 16.46375 -15.0625 16.1875 C-12.66868314 15.11332248 -12.66868314 15.11332248 -12 12 C-11.34 12 -10.68 12 -10 12 C-10 11.34 -10 10.68 -10 10 C-9.34 10 -8.68 10 -8 10 C-8 9.34 -8 8.68 -8 8 C-6.3777546 6.29006566 -4.70586575 4.62652316 -3 3 C-2.401875 2.401875 -1.80375 1.80375 -1.1875 1.1875 C-0.795625 0.795625 -0.40375 0.40375 0 0 Z " fill="#AEB2B4" transform="translate(383,82)"/>
<path d="M0 0 C2.375 0.8125 2.375 0.8125 4 2 C-5.13706521 5.29431603 -13.31199468 6.15767097 -23 6 C-23 8.64 -23 11.28 -23 14 C-23.33 14 -23.66 14 -24 14 C-24 10.7 -24 7.4 -24 4 C-22.77023437 3.96261719 -21.54046875 3.92523438 -20.2734375 3.88671875 C-18.64059599 3.82102972 -17.00778482 3.75458341 -15.375 3.6875 C-14.56675781 3.66494141 -13.75851562 3.64238281 -12.92578125 3.61914062 C-8.89033051 3.43869364 -6.34178686 3.17089343 -2.6640625 1.33203125 C-1.78492188 0.89246094 -0.90578125 0.45289063 0 0 Z " fill="#908D90" transform="translate(439,152)"/>
<path d="M0 0 C0.33 0.33 0.66 0.66 1 1 C0.96212481 2.8150957 0.84507974 4.62886085 0.6875 6.4375 C0.56955078 7.92056641 0.56955078 7.92056641 0.44921875 9.43359375 C0 12 0 12 -2 14 C-1.67 10.04 -1.34 6.08 -1 2 C-7.61370952 2.48736866 -7.61370952 2.48736866 -13.8125 4.625 C-17.17280159 6.07454186 -17.73635123 6.06192476 -21 5 C-19.43979133 4.34865075 -17.87671421 3.70417036 -16.3125 3.0625 C-15.44238281 2.70285156 -14.57226562 2.34320313 -13.67578125 1.97265625 C-9.07163645 0.29903281 -4.89502365 -0.22250107 0 0 Z " fill="#8B8C92" transform="translate(217,37)"/>
<path d="M0 0 C0.33 0.99 0.66 1.98 1 3 C-0.2087107 4.53538927 -1.42830163 6.06567495 -2.73828125 7.515625 C-4.12463047 9.01014118 -4.12463047 9.01014118 -5 11.1875 C-6.4238901 13.76830081 -8.44214829 14.65376226 -11 16 C-10.125 11.25 -10.125 11.25 -9 9 C-8.34 9 -7.68 9 -7 9 C-6.773125 8.443125 -6.54625 7.88625 -6.3125 7.3125 C-4.64103234 4.36753316 -2.44723648 2.31843456 0 0 Z " fill="#CDCED0" transform="translate(408,116)"/>
<path d="M0 0 C0.33 0.66 0.66 1.32 1 2 C-1.57979931 6.20411739 -4.07832134 9.03224317 -8 12 C-8.33 12.66 -8.66 13.32 -9 14 C-9.66 14 -10.32 14 -11 14 C-9.69977902 8.07677108 -6.47028205 4.82715185 -2 1 C-1.34 0.67 -0.68 0.34 0 0 Z " fill="#A5A8AA" transform="translate(26,153)"/>
<path d="M0 0 C0 1.32 0 2.64 0 4 C-1.96875 5.921875 -1.96875 5.921875 -4.5 7.75 C-5.75296875 8.67039062 -5.75296875 8.67039062 -7.03125 9.609375 C-7.6809375 10.06828125 -8.330625 10.5271875 -9 11 C-9 7.25983417 -8.0658409 6.54723807 -5.625 3.8125 C-4.99851562 3.09707031 -4.37203125 2.38164062 -3.7265625 1.64453125 C-2 0 -2 0 0 0 Z " fill="#9C9B9F" transform="translate(28,22)"/>
<path d="M0 0 C-1.09898852 2.56430654 -2.06785768 4.06386605 -4.125 6 C-6.45596075 8.02944747 -6.45596075 8.02944747 -6 12 C-6.66 12 -7.32 12 -8 12 C-8.9375 9.375 -8.9375 9.375 -9 6 C-6.69676355 3.19055774 -3.78887916 0 0 0 Z " fill="#9EA2A5" transform="translate(115,63)"/>
<path d="M0 0 C0.66 0.33 1.32 0.66 2 1 C-1.11016455 4.28788824 -4.01618925 6.83735988 -8 9 C-8.99 8.34 -9.98 7.68 -11 7 C-10.37351562 6.66226563 -9.74703125 6.32453125 -9.1015625 5.9765625 C-8.28429687 5.53054687 -7.46703125 5.08453125 -6.625 4.625 C-5.40683594 3.96371094 -5.40683594 3.96371094 -4.1640625 3.2890625 C-1.89185698 2.0556107 -1.89185698 2.0556107 0 0 Z " fill="#9DA2A4" transform="translate(457,196)"/>
<path d="M0 0 C0.99 0.33 1.98 0.66 3 1 C3.99 1 4.98 1 6 1 C4.02 1.99 4.02 1.99 2 3 C2 3.66 2 4.32 2 5 C-0.5 6.625 -0.5 6.625 -3 8 C-2.45276317 4.62537285 -1.9451 2.91765 0 0 Z " fill="#ACAAAD" transform="translate(120,207)"/>
<path d="M0 0 C0.66 0.33 1.32 0.66 2 1 C1.07161713 2.31896465 0.13194268 3.62998689 -0.8125 4.9375 C-1.59560547 6.03384766 -1.59560547 6.03384766 -2.39453125 7.15234375 C-4 9 -4 9 -7 10 C-5.6062718 5.56541027 -3.39417765 3.12621626 0 0 Z " fill="#AAA9AC" transform="translate(194,43)"/>
<path d="M0 0 C1.98 0.495 1.98 0.495 4 1 C4 5.62 4 10.24 4 15 C3.34 15 2.68 15 2 15 C2.03480469 14.15695313 2.06960938 13.31390625 2.10546875 12.4453125 C2.13253906 11.34960938 2.15960938 10.25390625 2.1875 9.125 C2.22230469 8.03445312 2.25710938 6.94390625 2.29296875 5.8203125 C2.14794922 4.42425781 2.14794922 4.42425781 2 3 C1.01 2.34 0.02 1.68 -1 1 C-0.67 0.67 -0.34 0.34 0 0 Z " fill="#818385" transform="translate(444,113)"/>
<path d="M0 0 C3.10515402 2.07010268 3.57196269 2.76311542 5 6 C5.66275088 7.33528405 6.3288815 8.66890189 7 10 C6.45730469 9.59007812 5.91460937 9.18015625 5.35546875 8.7578125 C4.64003906 8.21898437 3.92460938 7.68015625 3.1875 7.125 C2.47980469 6.59132813 1.77210937 6.05765625 1.04296875 5.5078125 C-0.60456297 4.29185219 -2.29624211 3.13583859 -4 2 C-2.68 1.34 -1.36 0.68 0 0 Z " fill="#959597" transform="translate(111,24)"/>
<path d="M0 0 C0.33 0.99 0.66 1.98 1 3 C-3.625 7.875 -3.625 7.875 -7 9 C-5.44499019 5.18315774 -2.96404505 2.80804268 0 0 Z " fill="#C4C6CB" transform="translate(408,116)"/>
<path d="M0 0 C0.99 0 1.98 0 3 0 C1.90931332 3.77545388 1.0916909 6.47043472 -2 9 C-2.33 7.68 -2.66 6.36 -3 5 C-2.01 4.67 -1.02 4.34 0 4 C0 2.68 0 1.36 0 0 Z " fill="#A3A9B2" transform="translate(463,204)"/>
<path d="M0 0 C3.7910119 1.44950455 7.3874638 3.15172566 11 5 C9 6 9 6 5.5 5.3125 C2 4 2 4 0.5625 1.875 C0.376875 1.25625 0.19125 0.6375 0 0 Z " fill="#979899" transform="translate(96,116)"/>
<path d="M0 0 C0.66 0.33 1.32 0.66 2 1 C0.8125 3.4375 0.8125 3.4375 -1 6 C-3.6875 6.8125 -3.6875 6.8125 -6 7 C-4.02 4.69 -2.04 2.38 0 0 Z " fill="#8B8B93" transform="translate(453,162)"/>
<path d="M0 0 C0.33 0.66 0.66 1.32 1 2 C-0.98 4.97 -0.98 4.97 -3 8 C-3.66 7.34 -4.32 6.68 -5 6 C-2.25 1.125 -2.25 1.125 0 0 Z " fill="#C9C9CF" transform="translate(26,153)"/>
<path d="M0 0 C5.41538462 -0.36923077 5.41538462 -0.36923077 8.375 1.5 C8.91125 1.995 9.4475 2.49 10 3 C9.67 3.66 9.34 4.32 9 5 C4.545 3.02 4.545 3.02 0 1 C0 0.67 0 0.34 0 0 Z " fill="#A9A6AD" transform="translate(59,126)"/>
<path d="M0 0 C0 3 0 3 -1.3125 4.38671875 C-2.875 5.59114583 -4.4375 6.79557292 -6 8 C-6.66 7.67 -7.32 7.34 -8 7 C-5.36 4.69 -2.72 2.38 0 0 Z " fill="#8D8D90" transform="translate(245,111)"/>
<path d="M0 0 C0.66 0.99 1.32 1.98 2 3 C0.38405168 5.04119788 -1.2856382 7.04072937 -3 9 C-3.66 9 -4.32 9 -5 9 C-4.34 7.35 -3.68 5.7 -3 4 C-2.34 4 -1.68 4 -1 4 C-0.67 2.68 -0.34 1.36 0 0 Z " fill="#A9A9A9" transform="translate(120,54)"/>
<path d="M0 0 C0.33 0.66 0.66 1.32 1 2 C-0.25 4.5625 -0.25 4.5625 -2 7 C-2.99 7.33 -3.98 7.66 -5 8 C-3.62845496 5.04590299 -2.01136276 2.55991624 0 0 Z " fill="#A3A3A5" transform="translate(234,121)"/>
</svg>
